<?xml version="1.0" encoding="UTF-8"?>
<svg id="Layer_1" width="580.55" height="89.9" xmlns="http://www.w3.org/2000/svg" viewBox="0 0 580.55 89.9">
  <defs>
    <style>
      .cls-1 {
        fill: #003976;
      }

      .cls-1, .cls-2 {
        stroke-width: 0px;
      }

      .cls-2 {
        fill: #0097d7;
      }
    </style>
  </defs>
  <g>
    <polygon class="cls-1" points="44.45 23.28 25.48 32.44 72.38 55.6 44.6 69.32 0 47.29 0 65.85 44.58 87.89 89.23 65.84 89.23 45.37 44.45 23.28" />
    <polygon class="cls-2" points="44.53 64.53 63.67 55.45 16.77 32.29 44.55 18.57 89.23 40.64 89.23 22.08 44.57 0 0 22.01 0 42.57 44.53 64.53" />
  </g>
  <path class="cls-1" d="M119.7,55.4c1.56,3.79,6.18,13.59,15.23,13.59,6.26,0,10.29-3.71,10.29-10.54,0-8.32-6.67-10.95-11.12-13.25-3.21-1.65-13.59-5.43-13.59-14.91,0-7.99,6.01-15.07,16.71-15.07,4.69,0,7.41,1.32,9.88,1.89.33,2.88.82,6.18,1.48,11.2l-1.24.24c-1.81-5.02-4.28-11.36-11.94-11.36-6.34,0-9.22,4.28-9.22,9.47,0,6.09,4.69,9.06,10.95,11.94,6.09,2.72,14,6.25,14,16.05,0,9.22-7.74,16.39-18.11,16.55-2.96-.16-5.76-.74-7.74-1.4-2.06-.66-3.46-1.32-4.37-1.73-.74-2.14-1.65-7.99-2.47-12.35l1.23-.33Z" />
  <path class="cls-1" d="M165.32,59.1c0,6.51,3.13,7.83,5.43,7.83,1.32,0,3.54-.75,5.27-1.73l.58,1.15-6.75,3.87c-1.07.58-1.81.74-2.22.74-5.85,0-8.48-3.38-8.48-9.63v-24.37h-6.01l-.25-.82,2.55-1.89h3.7v-4.78l5.11-6.26,1.07.41v10.62h9.8c.66.91.41,1.81-.58,2.72h-9.22v22.15Z" />
  <path class="cls-1" d="M188.29,66.59c0,2.63-1.81,4.37-4.28,4.37s-4.2-1.73-4.2-4.37c0-2.39,1.81-4.28,4.2-4.28s4.28,1.89,4.28,4.28Z" />
  <path class="cls-1" d="M217.6,16.45l20.25,42.74,20.09-42.74h12.6v1.15c-7.16.99-7.66,1.73-7.41,10.79l.74,29.64c.25,9.14.49,9.8,7.74,10.79v1.15h-21.49v-1.15c6.92-.99,7.16-1.65,7.08-10.79l-.33-34h-.33l-20.75,45.04h-.9l-19.84-43.64h-.16l-.74,22.73c-.33,8.56,0,13.09.41,15.64.49,3.05,2.47,4.2,7.82,5.02v1.15h-19.35v-1.15c4.61-.74,6.26-1.97,7.08-5.02.66-2.55,1.32-7.49,1.73-15.64l.82-17.29c.49-10.95,0-12.27-7.74-13.26v-1.15h12.68Z" />
  <path class="cls-1" d="M292.95,63.71c-2.3,1.89-5.02,2.88-7,2.88-2.72,0-5.85-2.22-5.85-6.83,0-3.05,1.4-4.69,4.61-6.26,1.57-.82,6.42-3.05,8.23-3.79v14ZM298.96,43.21c0-2.96-.33-5.76-3.29-8.07-1.48-1.15-4.04-1.89-6.17-1.89-5.68,1.07-10.62,4.12-12.6,5.6-1.81,1.32-2.63,2.47-2.63,3.38,0,1.73,2.14,2.88,3.46,2.88,1.07,0,1.73-.58,1.89-1.57.82-3.79,1.81-5.1,2.8-5.93.74-.74,2.06-1.32,4.12-1.32,4.2,0,6.42,3.21,6.42,8.15v3.38c-2.8,1.65-8.89,3.95-13.17,5.6-4.36,1.65-6.34,4.28-6.34,8.07,0,4.53,3.87,9.47,9.96,9.47,1.73,0,6.17-3.21,9.55-5.52.5,2.23,1.73,5.03,4.61,5.52l7.9-4.28-.66-1.24c-1.57.83-2.88.91-3.54.91-1.24,0-2.31-1.57-2.31-4.61v-18.53Z" />
  <path class="cls-1" d="M317.9,62.56c0,4.53.41,5.35,6.75,6.25v1.15h-18.61v-1.15c5.27-.9,5.68-1.73,5.68-6.25v-19.02c0-4.86-.16-5.35-5.43-6.01v-1.15c3.46-.66,7.49-1.65,11.61-3.3v8.89h.16c1.89-3.54,5.76-8.73,9.64-8.73,2.47,0,4.36,2.22,4.36,3.87,0,1.32-.82,3.04-2.47,3.79-.9.41-1.48.25-1.89-.08-1.15-.99-2.06-1.65-3.54-1.65-1.89,0-3.95,1.4-6.26,5.68v17.71Z" />
  <path class="cls-1" d="M348.86,35.55l-2.63.58c-1.65.41-1.57,1.89-.66,4.2l7.99,21.24c2.22-5.6,6.58-17.21,7.65-21.49.58-2.55.25-3.46-1.48-3.87l-3.13-.66v-1.32h14.33v1.32c-4.36.99-4.53,1.57-6.75,5.93-2.39,4.61-5.1,11.53-10.12,23.96-5.19,12.85-7.16,18.03-8.32,22.4-.41,1.65-1.56,2.06-2.47,2.06-2.06,0-3.87-1.73-3.95-3.71,0-1.15.9-1.98,2.14-2.88,2.22-1.73,4.45-4.12,6.01-7.24,1.15-2.22,1.89-4.28,2.22-5.6.16-.58,0-1.4-.41-2.72-3.04-9.14-7-19.18-9.55-25.53-2.06-5.1-2.22-5.68-7.24-6.67v-1.32h16.55l-.16,1.32Z" />
  <path class="cls-1" d="M400.15,43.37c-2.71-5.76-5.68-8.07-9.22-8.07s-5.43,2.31-5.43,5.68c0,4.03,3.62,6.01,7.41,7.58,6.25,2.55,9.96,5.27,9.96,11.03,0,7.41-7.16,11.36-13.42,11.36-4.03,0-7.82-1.73-9.39-3.05-.41-1.23-1.07-5.76-.99-9.14l1.23-.16c1.48,4.61,5.76,10.29,10.54,10.29,3.46,0,6.34-1.9,6.34-6.34,0-4.04-2.55-5.85-6.84-7.82-5.02-2.31-9.96-4.69-9.96-10.62s5.1-10.87,12.43-10.87c2.8,0,5.11.66,6.84,1.4.74,1.89,1.56,6.83,1.73,8.23l-1.23.49Z" />
  <path class="cls-1" d="M435.8,20.73c0-1.65.25-1.97.74-2.22.66-.33,1.81-.41,4.53-.41,9.72,0,11.77,6.26,11.77,11.2,0,7.16-3.95,10.79-11.85,10.79h-5.19v-19.35ZM422.3,16.45v1.15c6.51.9,7,1.89,7.08,10.79v29.64c0,8.9-.66,9.88-7.58,10.79v1.15h18.36c6.34,0,11.61-.82,15.73-3.13,4.78-2.72,7.66-6.84,7.66-12.68,0-8.32-6.75-12.76-14.33-13.84v-.16c4.03-.99,10.87-4.53,10.87-11.77,0-4.12-1.48-7.08-4.28-9.06-2.72-1.89-6.51-2.88-12.02-2.88h-21.49ZM440.58,41.73c8.65,0,15.15,4.37,15.15,13.5s-5.85,12.93-12.84,12.93c-6.01,0-7.08-1.57-7.08-8.07v-18.36h4.78Z" />
  <path class="cls-1" d="M486.93,63.71c-2.3,1.89-5.02,2.88-7,2.88-2.72,0-5.85-2.22-5.85-6.83,0-3.05,1.4-4.69,4.61-6.26,1.57-.82,6.42-3.05,8.23-3.79v14ZM492.94,43.21c0-2.96-.33-5.76-3.29-8.07-1.48-1.15-4.04-1.89-6.18-1.89-5.68,1.07-10.62,4.12-12.6,5.6-1.81,1.32-2.64,2.47-2.64,3.38,0,1.73,2.14,2.88,3.46,2.88,1.07,0,1.73-.58,1.89-1.57.82-3.79,1.81-5.1,2.8-5.93.74-.74,2.06-1.32,4.12-1.32,4.2,0,6.42,3.21,6.42,8.15v3.38c-2.8,1.65-8.89,3.95-13.17,5.6-4.37,1.65-6.34,4.28-6.34,8.07,0,4.53,3.87,9.47,9.96,9.47,1.73,0,6.17-3.21,9.55-5.52.5,2.23,1.73,5.03,4.61,5.52l7.91-4.28-.66-1.24c-1.56.83-2.88.91-3.54.91-1.23,0-2.31-1.57-2.31-4.61v-18.53Z" />
  <path class="cls-1" d="M511.88,39.59c1.65-1.07,3.79-2.63,5.93-3.95,2.47-1.48,4.12-2.39,6.67-2.39,6.83,0,10.46,4.45,10.46,10.87v18.45c0,4.53.41,5.35,5.02,6.25v1.15h-17.21v-1.15c5.6-.9,6.01-1.73,6.01-6.25v-15.81c0-4.77-1.48-9.3-7.99-9.3-3.04,0-6.17,1.81-8.89,3.95v21.16c0,4.53.41,5.35,5.51,6.25v1.15h-17.62v-1.15c5.52-.9,5.93-1.73,5.93-6.25v-19.02c0-4.86-.16-5.35-5.43-6.01v-1.15c3.46-.66,7.49-1.65,11.61-3.3v6.5Z" />
  <path class="cls-1" d="M546.55,21.47c0-4.86-.17-5.51-5.68-6.17v-.91c3.71-.74,8.73-2.06,11.86-2.88v39.11c3.04-.58,4.45-1.81,5.51-2.97,1.57-1.65,4.61-6.17,6.01-8.4,1.32-2.06.74-2.8-.33-3.05l-2.22-.58v-1.15l15.56-.74v1.07l-3.38.99c-2.64.74-3.95,1.97-6.42,4.28-2.39,2.22-3.95,3.95-7.74,8.31,2.31,3.05,10.87,12.85,13.59,15.56,3.7,3.62,4.45,4.61,7.24,4.86v1.15h-10.21c-4.53-5.35-9.14-10.95-13.42-15.89-1.48-1.81-2.14-2.22-2.72-2.22-.41,0-.91.08-1.48.25v10.46c0,4.53.41,5.35,5.76,6.25v1.15h-17.78v-1.15c5.43-.9,5.85-1.73,5.85-6.25V21.47Z" />
  <path class="cls-1" d="M381.15,27.5c-1.79,2.17-3.74,3.73-5.86,4.67l-.7-1.49c1.71-1,3.17-2.23,4.38-3.7,1.21-1.46,1.81-2.96,1.81-4.49,0-.35-.1-.6-.29-.75-.19-.15-.43-.23-.7-.23-1.44.18-2.28.26-2.52.26-.95,0-1.87-.33-2.75-1.01-.88-.67-1.32-1.66-1.32-2.98,0-.97.36-1.93,1.07-2.89.71-.96,1.88-1.44,3.51-1.44s3.13.66,4.3,1.96c1.17,1.31,1.75,2.94,1.75,4.88,0,2.62-.89,5.01-2.68,7.18Z" />
</svg>